HIERARCHY
ROOT Hips
{
	OFFSET 0.000000 0.000000 0.000000
	CHANNELS 6 Xposition Yposition Zposition Xrotation Yrotation Zrotation
	JOINT LeftUpLeg_virtual
	{
		OFFSET 0.000000 0.000000 0.000000
		CHANNELS 3 Xrotation Yrotation Zrotation
		JOINT LeftUpLeg
		{
			OFFSET 15.427100 -6.655098 0.678600
			CHANNELS 3 Xrotation Yrotation Zrotation
			JOINT LeftLeg
			{
				OFFSET 4.081073 -39.591068 13.024000
				CHANNELS 3 Xrotation Yrotation Zrotation
				JOINT LeftFoot
				{
					OFFSET -4.081074 -37.707932 -15.979700
					CHANNELS 3 Xrotation Yrotation Zrotation
					JOINT LeftToeBase
					{
						OFFSET 5.346399 -15.068900 20.645000
						CHANNELS 3 Xrotation Yrotation Zrotation
						JOINT LeftToe_End
						{
							OFFSET 2.754700 0.931300 11.300900
							CHANNELS 3 Xrotation Yrotation Zrotation
							End Site
							{
								OFFSET 0 0 0
							}
						}
					}
				}
			}
		}
	}
	JOINT RightUpLeg_virtual
	{
		OFFSET 0.000000 0.000000 0.000000
		CHANNELS 3 Xrotation Yrotation Zrotation
		JOINT RightUpLeg
		{
			OFFSET -15.569500 -6.655098 0.678600
			CHANNELS 3 Xrotation Yrotation Zrotation
			JOINT RightLeg
			{
				OFFSET -4.081825 -39.591045 13.023800
				CHANNELS 3 Xrotation Yrotation Zrotation
				JOINT RightFoot
				{
					OFFSET 4.081824 -37.707954 -15.979600
					CHANNELS 3 Xrotation Yrotation Zrotation
					JOINT RightToeBase
					{
						OFFSET -5.346400 -15.068900 20.645000
						CHANNELS 3 Xrotation Yrotation Zrotation
						JOINT RightToe_End
						{
							OFFSET -2.754700 0.931300 11.300900
							CHANNELS 3 Xrotation Yrotation Zrotation
							End Site
							{
								OFFSET 0 0 0
							}
						}
					}
				}
			}
		}
	}
	JOINT Spine_virtual
	{
		OFFSET 0.000000 0.000000 0.000000
		CHANNELS 3 Xrotation Yrotation Zrotation
		JOINT Spine
		{
			OFFSET -0.279200 12.230698 -2.892100
			CHANNELS 3 Xrotation Yrotation Zrotation
			JOINT Spine1
			{
				OFFSET -0.232667 10.192268 -1.242267
				CHANNELS 3 Xrotation Yrotation Zrotation
				JOINT Spine1_split
				{
					OFFSET -0.232667 10.192268 -1.242267
					CHANNELS 3 Xrotation Yrotation Zrotation
					JOINT Spine2
					{
						OFFSET -0.232667 10.192268 -1.242267
						CHANNELS 3 Xrotation Yrotation Zrotation
						JOINT Neck_virtual
						{
							OFFSET 0.000000 0.000000 0.000000
							CHANNELS 3 Xrotation Yrotation Zrotation
							JOINT Neck
							{
								OFFSET -0.418800 17.814194 8.416900
								CHANNELS 3 Xrotation Yrotation Zrotation
								JOINT Head
								{
									OFFSET 0.000000 7.031097 3.806800
									CHANNELS 3 Xrotation Yrotation Zrotation
									JOINT HeadTop_End
									{
										OFFSET 0.000000 24.646606 12.978600
										CHANNELS 3 Xrotation Yrotation Zrotation
										End Site
										{
											OFFSET 0 0 0
										}
									}
								}
							}
						}
						JOINT LeftShoulder_virtual
						{
							OFFSET 0.000000 0.000000 0.000000
							CHANNELS 3 Xrotation Yrotation Zrotation
							JOINT LeftShoulder
							{
								OFFSET 8.476499 7.247704 -3.868750
								CHANNELS 3 Xrotation Yrotation Zrotation
								JOINT LeftShoulder_split
								{
									OFFSET 8.476499 7.247704 -3.868750
									CHANNELS 3 Xrotation Yrotation Zrotation
									JOINT LeftArm
									{
										OFFSET 9.308998 -2.777710 0.208600
										CHANNELS 3 Xrotation Yrotation Zrotation
										JOINT LeftForeArm
										{
											OFFSET 29.972298 0.000000 0.000000
											CHANNELS 3 Xrotation Yrotation Zrotation
											JOINT LeftHand
											{
												OFFSET 26.026505 0.000000 0.000000
												CHANNELS 3 Xrotation Yrotation Zrotation
												End Site
												{
													OFFSET 0 0 0
												}
											}
										}
									}
								}
							}
						}
						JOINT RightShoulder_virtual
						{
							OFFSET 0.000000 0.000000 0.000000
							CHANNELS 3 Xrotation Yrotation Zrotation
							JOINT RightShoulder
							{
								OFFSET -7.570500 7.247704 -3.868750
								CHANNELS 3 Xrotation Yrotation Zrotation
								JOINT RightShoulder_split
								{
									OFFSET -7.570500 7.247704 -3.868750
									CHANNELS 3 Xrotation Yrotation Zrotation
									JOINT RightArm
									{
										OFFSET -9.308998 -2.777710 0.208500
										CHANNELS 3 Xrotation Yrotation Zrotation
										JOINT RightForeArm
										{
											OFFSET -29.972300 0.000000 0.000000
											CHANNELS 3 Xrotation Yrotation Zrotation
											JOINT RightHand
											{
												OFFSET -26.026505 0.000000 0.000000
												CHANNELS 3 Xrotation Yrotation Zrotation
												End Site
												{
													OFFSET 0 0 0
												}
											}
										}
									}
								}
							}
						}
					}
				}
			}
		}
	}
}
MOTION
Frames: 4
Frame Time: 0.03333333
-3.921521 77.357307 81.722748 0.000000 0.000000 0.000000 25.936539 16.464096 -4.303435 -6.199477 6.947312 7.836797 24.619801 10.247554 1.998635 -22.800768 14.516964 -32.823792 -18.798631 -8.540803 6.676093 0.000000 0.000000 0.000000 27.034375 15.937032 -4.338678 -66.621815 -6.959804 -6.144641 51.913269 -29.437654 -12.542694 -0.368168 -0.009467 -3.292132 -5.793121 11.115848 7.514835 0.000000 0.000000 0.000000 29.371842 9.458097 -3.264744 5.369403 -1.431533 -0.743904 8.646716 -0.336141 3.797314 1.081967 -0.367596 1.281105 0.000000 0.000000 0.000000 10.317347 0.158548 3.315011 -7.011825 -0.460627 -0.049070 -6.709422 6.244365 2.958096 0.000000 0.000000 0.000000 11.747335 -0.451113 3.420407 2.374506 -19.763730 3.313675 1.550595 -1.038113 -3.503108 -40.344046 -21.840821 -41.329304 108.713000 -63.603828 120.602344 0.000000 0.000000 0.000000 10.492057 0.291934 4.072204 3.222939 10.908312 -1.719761 2.750706 5.614655 0.601257 -46.248403 14.030010 35.353626 120.085613 46.742345 -141.526328 0.000000 0.000000 0.000000 
-3.987130 76.969101 82.221230 0.000000 0.000000 0.000000 26.085580 16.413001 -4.285114 -6.521270 7.071268 8.040409 25.129142 10.242821 2.118959 -22.642309 14.438303 -33.540402 -19.839242 -8.775781 6.737870 0.000000 0.000000 0.000000 27.224422 15.913195 -4.329175 -67.465658 -7.238062 -6.219229 52.680351 -29.688476 -12.489255 -0.119493 -0.172644 -3.344242 -6.556204 10.859283 7.838946 0.000000 0.000000 0.000000 29.546364 9.393697 -3.240645 5.427114 -1.351899 -0.732728 8.179012 -0.307464 3.782349 1.088784 -0.378987 1.258161 0.000000 0.000000 0.000000 9.842840 0.183929 3.308574 -7.250336 -0.428150 -0.168205 -6.727566 6.026852 2.975966 0.000000 0.000000 0.000000 11.263882 -0.415237 3.409128 2.503911 -19.835913 3.784016 1.564490 -0.996008 -3.456475 -40.812880 -21.977293 -41.226301 106.953106 -64.094980 118.917692 0.000000 0.000000 0.000000 10.016970 0.319784 4.050608 3.295384 10.716967 -2.124031 2.809639 5.664134 0.563905 -46.979991 14.074768 35.799378 119.608306 47.127247 -140.798968 0.000000 0.000000 0.000000 
-4.046974 76.610023 82.674835 0.000000 0.000000 0.000000 26.253019 16.347209 -4.287171 -6.904244 7.236439 8.281097 25.606174 10.234354 2.238564 -22.436311 14.309886 -34.260150 -20.857128 -9.027205 6.789462 0.000000 0.000000 0.000000 27.422248 15.856421 -4.334196 -68.275677 -7.534309 -6.346935 53.388911 -29.862530 -12.473299 0.073172 -0.231442 -3.259426 -7.249549 10.649703 8.097997 0.000000 0.000000 0.000000 29.725414 9.313576 -3.237393 5.516856 -1.277865 -0.721128 7.684670 -0.277497 3.775980 1.088008 -0.372779 1.242335 0.000000 0.000000 0.000000 9.335142 0.206430 3.306888 -7.480694 -0.375069 -0.307228 -6.741708 5.845950 2.994596 0.000000 0.000000 0.000000 10.749631 -0.382108 3.404037 2.622466 -19.910587 4.227510 1.587490 -0.959979 -3.393971 -41.425060 -22.175177 -41.203345 104.766667 -64.598823 116.774679 0.000000 0.000000 0.000000 9.511160 0.347251 4.036680 3.361223 10.515900 -2.551189 2.898038 5.720038 0.528504 -47.812782 14.058107 36.270726 118.993985 47.592502 -139.938446 0.000000 0.000000 0.000000 
-4.094104 76.269142 83.092499 0.000000 0.000000 0.000000 26.455833 16.271380 -4.331227 -7.328811 7.438658 8.575350 26.061179 10.231366 2.359811 -22.218252 14.147520 -34.945099 -21.848464 -9.293363 6.826878 0.000000 0.000000 0.000000 27.641284 15.779726 -4.375398 -69.004985 -7.859821 -6.456646 54.036471 -29.994776 -12.496897 0.039368 -0.206205 -3.198765 -7.733571 10.485663 8.322690 0.000000 0.000000 0.000000 29.919288 9.201072 -3.260292 5.622185 -1.207050 -0.704540 7.166204 -0.247768 3.771382 1.092279 -0.341758 1.237379 0.000000 0.000000 0.000000 8.792233 0.223919 3.301360 -7.691701 -0.306797 -0.453198 -6.773394 5.692627 3.026259 0.000000 0.000000 0.000000 10.204968 -0.355019 3.398058 2.731152 -19.985364 4.657564 1.608153 -0.925345 -3.334171 -42.148285 -22.451204 -41.246502 102.177718 -65.088254 114.194233 0.000000 0.000000 0.000000 8.970873 0.370634 4.022852 3.421897 10.312596 -2.990673 3.006825 5.763500 0.496369 -48.700874 13.929032 36.769572 118.258182 48.126428 -138.971619 0.000000 0.000000 0.000000 
